<svg width="512" height="512" viewBox="0 0 512 512" fill="none" xmlns="http://www.w3.org/2000/svg">
<g clip-path="url(#clip0_3_279)">
<rect width="512" height="512" rx="169" fill="url(#paint0_linear_3_279)"/>
<path d="M101.863 197.672C93.8169 205.718 93.8169 218.771 101.863 226.817L138.772 263.613L164.259 289.157C172.305 297.203 185.302 297.203 193.404 289.157C201.449 281.111 201.449 268.058 193.404 260.069L131.064 197.728C127.013 193.677 121.78 191.708 116.491 191.708C111.202 191.708 105.97 193.734 101.919 197.728" fill="#E2E2E2"/>
<path d="M193.347 135.276C185.302 127.23 172.249 127.23 164.203 135.276L101.863 197.616C93.9857 205.493 93.4793 217.815 101.019 225.86L101.356 226.198L101.75 226.592C101.75 226.592 101.806 226.648 101.863 226.704C101.863 226.704 101.919 226.761 101.975 226.817L138.772 263.557C118.967 243.752 145.58 212.188 145.58 212.188L193.404 164.364C201.449 156.318 201.449 143.265 193.404 135.219" fill="white"/>
<path d="M324.048 212.188C316.002 220.234 316.002 233.287 324.048 241.333L386.388 303.673C394.434 311.719 407.487 311.719 415.533 303.673C423.579 295.628 423.579 282.574 415.533 274.529L378.624 237.732L353.136 212.188C349.142 208.194 343.853 206.168 338.564 206.168C333.275 206.168 328.043 208.194 323.992 212.188" fill="url(#paint1_linear_3_279)"/>
<path d="M324.048 366.07C332.094 374.116 345.147 374.116 353.193 366.07L415.533 303.73C423.41 295.853 423.916 283.531 416.377 275.485L416.039 275.148L415.589 274.754C415.589 274.754 415.589 274.697 415.477 274.641C415.477 274.641 415.42 274.585 415.364 274.529L378.568 237.788C398.372 257.593 371.76 289.157 371.76 289.157L323.935 336.981C315.89 345.027 315.89 358.08 323.935 366.126" fill="white"/>
<path d="M239.765 376.929C236.051 388.8 223.392 395.439 211.52 391.726C199.649 388.013 193.01 375.353 196.723 363.425L269.697 133.982C273.411 122.11 286.07 115.471 297.998 119.185C309.869 122.898 316.509 135.557 312.795 147.429L239.821 376.872L239.765 376.929Z" fill="white"/>
</g>
<defs>
<linearGradient id="paint0_linear_3_279" x1="49.1455" y1="264.616" x2="474.477" y2="264.616" gradientUnits="userSpaceOnUse">
<stop stop-color="#FA7DA2"/>
<stop offset="1" stop-color="#F75C8B"/>
</linearGradient>
<linearGradient id="paint1_linear_3_279" x1="409.625" y1="299.51" x2="322.416" y2="217.927" gradientUnits="userSpaceOnUse">
<stop stop-color="white"/>
<stop offset="0.22" stop-color="#F3F3F3"/>
<stop offset="0.66" stop-color="#E3E3E3"/>
<stop offset="0.99" stop-color="#DDDDDD"/>
<stop offset="1" stop-color="#DDDDDD"/>
</linearGradient>
<clipPath id="clip0_3_279">
<rect width="512" height="512" fill="white"/>
</clipPath>
</defs>
</svg>
